/* XPM */
static char *asgp[] = {
/* columns rows colors chars-per-pixel */
"32 32 256 2 ",
"   c #5C1617",
".  c #5B0B13",
"X  c #6A0C16",
"o  c #7D0C19",
"O  c #730C17",
"+  c #681518",
"@  c #7D161E",
"#  c #74181C",
"$  c #107D38",
"%  c #117D26",
"&  c #6D7337",
"*  c #002D56",
"=  c #002F59",
"-  c #00325C",
";  c #003662",
":  c #013966",
">  c #003C6C",
",  c #7F3142",
"<  c #335A59",
"1  c #0C704D",
"2  c #06446C",
"3  c #004374",
"4  c #004679",
"5  c #014A7C",
"6  c #0A4E78",
"7  c #154C75",
"8  c #18577D",
"9  c #035175",
"0  c #28536C",
"q  c #2C4F77",
"w  c #27567E",
"e  c #364F74",
"r  c #086A62",
"t  c #2D6771",
"y  c #455C53",
"u  c #4E664C",
"i  c #787646",
"p  c #6A724C",
"a  c #4B7477",
"s  c #73686E",
"d  c #8C0D1D",
"f  c #820D1B",
"g  c #910D1E",
"h  c #990C1F",
"j  c #87151F",
"k  c #92101F",
"l  c #B9181B",
"z  c #A80C1E",
"x  c #8A1721",
"c  c #951A24",
"v  c #9B1826",
"b  c #BB0922",
"n  c #AB1723",
"m  c #8D282F",
"M  c #A92425",
"N  c #B32729",
"B  c #BA2B32",
"V  c #C51A1C",
"C  c #D4191D",
"Z  c #D50925",
"A  c #C31A26",
"S  c #D71222",
"D  c #C40922",
"F  c #C5282C",
"G  c #D7262B",
"H  c #DB2931",
"J  c #D43538",
"K  c #ED252D",
"L  c #F72A2E",
"P  c #ED2F33",
"I  c #FE2935",
"U  c #FF2E3C",
"Y  c #FF2632",
"T  c #E73437",
"R  c #FC3333",
"E  c #FC323B",
"W  c #8B7715",
"Q  c #927D17",
"!  c #8E7931",
"~  c #BB6832",
"^  c #B3402F",
"/  c #F75F35",
"(  c #FF7233",
")  c #A63C42",
"_  c #DB3F54",
"`  c #FD3945",
"'  c #8C5C6C",
"]  c #E84247",
"[  c #FF434D",
"{  c #FF4953",
"}  c #F74C56",
"|  c #C2596B",
" . c #FD5665",
".. c #E15761",
"X. c #D87A7A",
"o. c #FB6069",
"O. c #FF6370",
"+. c #158B18",
"@. c #17931A",
"#. c #1A961D",
"$. c #1BA21E",
"%. c #12852A",
"&. c #1E9F21",
"*. c #1DAA21",
"=. c #23B926",
"-. c #22AD26",
";. c #7B8239",
":. c #2BC334",
">. c #29CF2D",
",. c #148F45",
"<. c #21BD53",
"1. c #0F8D68",
"2. c #58837E",
"3. c #6B8D6E",
"4. c #7A8A46",
"5. c #3AE854",
"6. c #40ED47",
"7. c #9A851A",
"8. c #97831C",
"9. c #A28C1C",
"0. c #AA931E",
"q. c #B0971F",
"w. c #958521",
"e. c #B0912C",
"r. c #BDA424",
"t. c #B9A329",
"y. c #D7861E",
"u. c #DA8D23",
"i. c #CC9434",
"p. c #DC982E",
"a. c #E99826",
"s. c #F19E25",
"d. c #C3AB27",
"f. c #D3B72A",
"g. c #CCB734",
"h. c #D2BC38",
"j. c #C5B02F",
"k. c #EBA42B",
"l. c #FEAB27",
"z. c #F5A628",
"x. c #FEB229",
"c. c #D9C63E",
"v. c #898255",
"b. c #9C8148",
"n. c #A69056",
"m. c #BDB540",
"M. c #E9D550",
"N. c #703EA8",
"B. c #004E82",
"V. c #005186",
"C. c #00548B",
"Z. c #005B93",
"A. c #005F99",
"S. c #165185",
"D. c #215C87",
"F. c #3C4699",
"G. c #00639D",
"H. c #0A6C90",
"J. c #20608D",
"K. c #206B9B",
"L. c #206693",
"P. c #267998",
"I. c #0066A1",
"U. c #006DAB",
"Y. c #006CA7",
"T. c #0072AE",
"R. c #0B77AC",
"E. c #007CBB",
"W. c #0178B4",
"Q. c #146EAF",
"!. c #2B77AA",
"~. c #5B5A80",
"^. c #595BA2",
"/. c #3F73CA",
"(. c #A4209D",
"). c #AA23A5",
"_. c #BD29B5",
"`. c #B828B2",
"'. c #B229AF",
"]. c #9435B0",
"[. c #C72CBF",
"{. c #8C6D91",
"}. c #AC6F87",
"|. c #8245B9",
" X c #FC538E",
".X c #C4758F",
"XX c #FF7985",
"oX c #F16F8F",
"OX c #CD2EC4",
"+X c #C734C7",
"@X c #D132C9",
"#X c #DC3BD6",
"$X c #DA3AD5",
"%X c #D12FC9",
"&X c #E337DB",
"*X c #ED3FE6",
"=X c #AA6BEB",
"-X c #E441DE",
";X c #FA4DD2",
":X c #EC47E7",
">X c #F348ED",
",X c #F84CF2",
"<X c #FB53F6",
"1X c #FF55FD",
"2X c #FE5BFE",
"3X c #F652F1",
"4X c #F351ED",
"5X c #FE66FE",
"6X c #FE69FE",
"7X c #FD78FF",
"8X c #0982BD",
"9X c #068BB0",
"0X c #0FA0A1",
"qX c #4F8384",
"wX c #7291B4",
"eX c #0188C6",
"rX c #0094D4",
"tX c #009BDC",
"yX c #0B9AD7",
"uX c #0D98D1",
"iX c #2F93CD",
"pX c #01A0DF",
"aX c #1CA0D8",
"sX c #36A6DA",
"dX c #00A4E4",
"fX c #00A9EB",
"gX c #00A7E7",
"hX c #0DAEF0",
"jX c #36B6EA",
"kX c #38B0EF",
"lX c #55A0CC",
"zX c #579FE3",
"xX c #6C92ED",
"cX c #5196D9",
"vX c #3BC5F4",
"bX c #3BC9F7",
"nX c #37C9F7",
"mX c #39D2FC",
"MX c #4ECBF6",
"NX c #66DDFD",
"BX c #76E3FF",
"VX c #9384A2",
"CX c #FF818E",
"ZX c #EE8994",
"AX c #FF8B98",
"SX c #F18990",
"DX c #FFA8B4",
"FX c #FFB2BC",
"GX c #8C8BF2",
"HX c #FFB6C1",
"JX c #FC88FF",
"KX c #FF92FF",
"LX c #FFA3FF",
"PX c #EAA3EA",
"IX c #FFC6D0",
"UX c None",
/* pixels */
"UXUXUXNXvXvXvXvXvXvXvXvXkXbXmXmXmXmXmXnXmXmXmXbXvXjXjXjXjXUXUXUX",
"UXBXnXhXgXtXyXfXgXdXfXgXpXfXhXhXlXVX}.}.wXsXbXMXdXtXrXpXtXtXyXUX",
"UXvXfXfXhXxXGXGXxXhXdXgXpXfXsXZX{ R R R R R ..wXdXpXpXpXtXrXrXUX",
"MXgXdXxXJXLXLXKXJX7XxXdXdXaXoXo.R P M m M J R R | aXgXpXtXrXrXE.",
"kXdXGX7XKXJX7X5X2X3X6XxXfX{.FXE P #   # # j c H L ] iXpXtXrXW.Z.",
"sXiX6X6X6X7X6X2X<X:X:X5XkX.XDXL ^   + + # j c v F L T iXrXW.I.C.",
"sX=X:X2X5X5X5X2X,X>X>X>XGX.XDXP N   + + @ x c v v A K B Q.U.I.C.",
"jX:X-X3X1X2X2X1X,X,X>X>XPX .DX] F   + # j x c v v k A C , T.I.A.",
"zX&X&X:X,X1X1X1X1X<X3X3XoXAXAXo.G + + + @ j j d d d g C C q W.G.",
"zX$X-X:X,X1X1X1X1X1X1X;XAXFXO.XXH M X + X O f d d d k b C , W.G.",
"zX$X$X-X>X1X1X1X1X<X<X XIXDX .o.} l X . X O f d g g g z C l R.G.",
"!.'._.@X&X*X>X,X>X:X-X XHXAX` `  .J l X X X O f d g g h S V D.G.",
"K.N.'.`.OX$X&X&X&X&X$XXXFXCX` Y [ } H l o X O f d d g n G G q Z.",
"K.C.).'.`.[.OX%X%X@X@X XHXO.U U Y [ { J l z f o f d g Z SXX.7 V.",
"K.V.F.).).'.`._._.+X/.{.HXCXE U U Y [ [ T l S D b b S S J ) I.C.",
"K.C.C.F.).(.(.`.|.Q.8Xn.CXAX` U U Y L R [ ` G l b A V V X.q I.C.",
"K.C.V.C.].).|.Q.8X9Xv.l.( CX{ E U I Y K G P T J B N M c e Y.A.B.",
"K.V.V.C.|.+XF.T.8Xs s.l.s./ o.E U Y I K G A l n N ^ ~ n.H.G.C.5 ",
"K.B.B.B.C.Z.G.U.a a.l.a.a.a.' _ I Y I K G A M ~ M.M.h.g.m.8 B.3 ",
"D.3 4 B.C.I.W.!.u.x.a.a.a.2.dXpX/.{.' s ~.qXh.c.c.h.t.9.7.i 3 : ",
"D.4 B.C.A.Y.R.e.x.s.a.a.qXtXrXrXeXjXeXuXaX3.0.t.j.j.t.0.8.w.5 2 ",
"J.B.B.Z.G.U.v.x.z.u.k.2.eXrX0XeXeXeXeX8XiX4.7.0.r.d.d.q.9.7.6 2 ",
"J.4 B.Z.G.a z.z.y.s.3.eX0X5.6.>.<.9XE.T.U.;.8.0.d.f.f.r.0.7.4 > ",
"J.4 B.Z.H.i.x.y.a.v.W.9X:.:.:.$.+.,.T.T.G.p Q 9.d.f.f.r.9.& 4 > ",
"J.4 5 B.i l.u.a.e.R.Y.1.@.-.=.*.@.+.H.Y.G.t W 7.q.r.r.q.7.< 2 : ",
"D.> 4 q k.z.u.p.P.G.G.,.+.&.=.=.*.@.H.G.A.V.& W 7.9.9.7.u ; ; - ",
"w > 4 ! l.a.k.a A.Z.Z.1 @.*.>.=.*.@.Z.Z.Z.V.6 & W W & < 3 > ; = ",
"8 3 7 u.a.z.b.S.5 C.C.r +.$.=.=.@.,.V.C.V.V.4 < 7.u 2 : > > > = ",
"S.3 7 u.k.i.S.4 4 4 B.5 $ +.@.@.%.9 4 B.B.4 4 : u 2 > > > > > = ",
"UX3 4 y p 0 3 > 3 3 3 4 2 % %.1 9 4 > 4 4 3 3 : ; - : > > ; - UX",
"UX> 3 3 4 > : > > 3 2 2 ; 1 r 3 3 3 ; 3 3 > > > - - - > > - - UX",
"UXUXUX: ; - - ; ; ; ; ; * * ; : : ; = - ; ; ; ; = * * * - UXUXUX"
};
