/* XPM */
static char * asgp_xpm[] = {
"32 32 184 2",
"  	c None",
". 	c #2B2B2B",
"+ 	c #2D2D2D",
"@ 	c #2E2E2E",
"# 	c #2F2F2F",
"$ 	c #303030",
"% 	c #313131",
"& 	c #2C2C2C",
"* 	c #2A2A2A",
"= 	c #323232",
"- 	c #333333",
"; 	c #343434",
"> 	c #353535",
", 	c #363636",
"' 	c #373737",
") 	c #383838",
"! 	c #393939",
"~ 	c #3A3A3A",
"{ 	c #383B31",
"] 	c #5A721B",
"^ 	c #729519",
"/ 	c #6A8C14",
"( 	c #465422",
"_ 	c #3B3B3B",
": 	c #3D3D3D",
"< 	c #4B5C22",
"[ 	c #A9DF23",
"} 	c #DCF5B6",
"| 	c #E2F4D4",
"1 	c #DFF5C6",
"2 	c #D0F681",
"3 	c #7EA51A",
"4 	c #383A34",
"5 	c #3E3E3E",
"6 	c #475328",
"7 	c #ACF000",
"8 	c #C3FA41",
"9 	c #D7F69E",
"0 	c #76A00C",
"a 	c #282828",
"b 	c #3F3F3F",
"c 	c #8CC005",
"d 	c #B5FC00",
"e 	c #C9F85D",
"f 	c #DEF5C2",
"g 	c #D2F788",
"h 	c #B3FA00",
"i 	c #455128",
"j 	c #414141",
"k 	c #454E2D",
"l 	c #B5FC02",
"m 	c #BBFB1D",
"n 	c #BAFB18",
"o 	c #6E9114",
"p 	c #3C3C3C",
"q 	c #434343",
"r 	c #5F781F",
"s 	c #81B00A",
"t 	c #404040",
"u 	c #444444",
"v 	c #6F9116",
"w 	c #424242",
"x 	c #729615",
"y 	c #709513",
"z 	c #65821C",
"A 	c #4D5B27",
"B 	c #47512D",
"C 	c #B5FB00",
"D 	c #87B908",
"E 	c #8CC105",
"F 	c #A1DF02",
"G 	c #424931",
"H 	c #536622",
"I 	c #9EDC02",
"J 	c #454E2C",
"K 	c #292929",
"L 	c #3C3C3B",
"M 	c #88BA07",
"N 	c #94CC04",
"O 	c #40472F",
"P 	c #313030",
"Q 	c #3F462D",
"R 	c #9CD902",
"S 	c #B4FA00",
"T 	c #3A3C34",
"U 	c #60260C",
"V 	c #5B2910",
"W 	c #272727",
"X 	c #2B3511",
"Y 	c #333B1F",
"Z 	c #472417",
"` 	c #7C300B",
" .	c #6F2A09",
"..	c #702B0A",
"+.	c #262626",
"@.	c #4A2314",
"#.	c #96420E",
"$.	c #9E4B10",
"%.	c #6E2A09",
"&.	c #7F2D0A",
"*.	c #272625",
"=.	c #252525",
"-.	c #292523",
";.	c #88380C",
">.	c #6B2609",
",.	c #842E0A",
"'.	c #2F221E",
").	c #242424",
"!.	c #3B3830",
"~.	c #55503E",
"{.	c #70674C",
"].	c #4C1C09",
"^.	c #95410E",
"/.	c #8E390D",
"(.	c #802B0A",
"_.	c #662007",
":.	c #7F2A0A",
"<.	c #3C2117",
"[.	c #222222",
"}.	c #2C2B28",
"|.	c #444033",
"1.	c #5F5944",
"2.	c #837B5E",
"3.	c #A39A75",
"4.	c #C8BC90",
"5.	c #D1C597",
"6.	c #CFC294",
"7.	c #C4B580",
"8.	c #5E351B",
"9.	c #7C2909",
"0.	c #7D2709",
"a.	c #752508",
"b.	c #6D2208",
"c.	c #4A2011",
"d.	c #1F1F1F",
"e.	c #2F2E27",
"f.	c #4F4A39",
"g.	c #716A51",
"h.	c #928969",
"i.	c #B4AA82",
"j.	c #CFC396",
"k.	c #CCBF8F",
"l.	c #C6B784",
"m.	c #B7A774",
"n.	c #928558",
"o.	c #766C49",
"p.	c #5C543D",
"q.	c #433E31",
"r.	c #2D241F",
"s.	c #461E10",
"t.	c #7C2709",
"u.	c #651F07",
"v.	c #591F0B",
"w.	c #2B2924",
"x.	c #BCAC77",
"y.	c #D0C395",
"z.	c #CABB8A",
"A.	c #C2B27E",
"B.	c #A69766",
"C.	c #847850",
"D.	c #685F41",
"E.	c #504A37",
"F.	c #35332B",
"G.	c #242423",
"H.	c #301F19",
"I.	c #4D1F0F",
"J.	c #551F0D",
"K.	c #501C0A",
"L.	c #5F1F09",
"M.	c #232323",
"N.	c #1C1C1C",
"O.	c #212121",
"P.	c #625A3F",
"Q.	c #5C553C",
"R.	c #413D2F",
"S.	c #282723",
"T.	c #222121",
"U.	c #201E1D",
"V.	c #1D1D1D",
"W.	c #202020",
"X.	c #1A1A1A",
"Y.	c #1B1B1B",
"Z.	c #191919",
"`.	c #1E1E1E",
"                                                                ",
"                                                                ",
"                . + @ # $ $ % % % % $ # # @ & *                 ",
"            & $ = - ; > , ' ' ) ) ' ' , > ; - % $ *             ",
"          @ % - ; , ' ) ! ~ { ] ^ / ( ' ) ' , ; = % &           ",
"        @ % - > ' ! ~ _ : < [ } | 1 2 3 4 ~ ) , > - % &         ",
"      . % - > ' ! _ : 5 6 7 8 | | | | 9 0 _ _ ! ' > - % a       ",
"      $ = > ' ! _ : b 5 c d d e f | | g h i : _ ) , ; = @       ",
"    * % ; , ) _ : b j k d d d d l m n d d o b p ~ ) > - %       ",
"    & = > ' ! p 5 j q r d d d d d d d d d s t 5 _ ! , ; % *     ",
"    + - > ) ~ : b j u v d d d d d d d d d s j 5 p ! ' ; = .     ",
"    + - > ) ~ : b w u x d d d d d d d d d y j 5 p ! ' ; = .     ",
"    + = > ' ~ p b j u z d d d d d d d d d A t 5 p ! ' ; = *     ",
"    & = ; ' ! _ 5 t w B C d d d d d d d D b b : _ ) , ; % *     ",
"    & % - , ) ~ p 5 t t E d d d d d d F G t 5 p ! ' > - $ *     ",
"    . $ = ; , ) _ p 5 t H d d d d d I J b 5 p ~ ) , - % $ K     ",
"    * # % = ; , ) ~ p : L M d d d N O 5 : _ ~ ) P P = $ # a     ",
"    K @ # % = ; , ) ! ~ _ Q R S 0 T p _ ~ ! ' P U V $ # + W     ",
"    a + @ # $ = - > , ' ) ! X Y ! ! ! ) ' - Z `  ...@ + & +.    ",
"    W . & @ # $ % = - ; > , a ; , , , > ; @.#.$.%.&.*.& . =.    ",
"    =.* . & + @ # $ $ % = % a - - - = = -.;.$.$.>.,.'.* K ).    ",
"    ).a K * . & + @ @ # # ).$ # * !.~.{.].^./.(._.:.<.K a [.    ",
"    [.+.W a K * . & K }.|.1.2.3.4.5.6.7.8.9.0.0.a.b.c.W +.      ",
"    d.=.+.+.e.f.g.h.i.j.5.k.l.m.n.o.p.q.r.s.t.0.0.u.v.=.).      ",
"      [.).w.x.y.z.A.B.C.D.E.F.G.K K K K a W H.I.J.K.L.M.d.      ",
"      N.[.O.P.Q.R.S.M.+.d.W W W W W W W +.+.=.=.).T.U.O.        ",
"        V.O.O.[.M.M.).).).=.=.=.=.=.=.).).).M.M.[.O.W.X.        ",
"          Y.d.W.O.O.[.[.[.[.M.M.M.M.[.[.[.O.O.W.W.d.Z.          ",
"              N.`.d.d.W.W.W.W.W.W.W.W.W.W.d.d.`.Y.              ",
"                    X.X.X.X.Y.Y.Y.X.Y.X.X.X.                    ",
"                                                                ",
"                                                                "};
